####
#
# OBJ File Generated by Meshlab
#
####
# Object white22.obj
#
# Vertices: 8
# Faces: 12
#
####
mtllib ./white22.obj.mtl

vn -2.000000 -1.000000 1.000000
v -0.110000 -0.037500 0.055000 1.000000 1.000000 1.000000
vn -1.000000 2.000000 2.000000
v -0.110000 0.037500 0.055000 1.000000 1.000000 1.000000
vn -1.000000 -2.000000 -2.000000
v -0.110000 -0.037500 -0.055000 1.000000 1.000000 1.000000
vn -2.000000 1.000000 -1.000000
v -0.110000 0.037500 -0.055000 1.000000 1.000000 1.000000
vn 1.000000 -2.000000 2.000000
v 0.110000 -0.037500 0.055000 1.000000 1.000000 1.000000
vn 2.000000 1.000000 1.000000
v 0.110000 0.037500 0.055000 1.000000 1.000000 1.000000
vn 2.000000 -1.000000 -1.000000
v 0.110000 -0.037500 -0.055000 1.000000 1.000000 1.000000
vn 1.000000 2.000000 -2.000000
v 0.110000 0.037500 -0.055000 1.000000 1.000000 1.000000
# 8 vertices, 0 vertices normals


usemtl material_0
vt 0.250046 0.670423
vt 0.250046 0.840847
vt 0.000092 0.840847
f 1/1/1 2/2/2 4/3/4
vt 0.000092 0.670423
f 1/1/1 4/3/4 3/4/3
vt 0.250046 0.420469
vt 0.250046 0.250046
vt 0.749954 0.250046
f 3/5/3 4/6/4 8/7/8
vt 0.749954 0.420469
f 3/5/3 8/7/8 7/8/7
vt 0.999908 0.670423
vt 0.999908 0.840847
vt 0.749954 0.840847
f 7/9/7 8/10/8 6/11/6
vt 0.749954 0.670423
f 7/9/7 6/11/6 5/12/5
f 5/12/5 6/11/6 2/2/2
f 5/12/5 2/2/2 1/1/1
f 3/5/3 7/8/7 5/12/5
f 3/5/3 5/12/5 1/1/1
vt 0.250046 0.000092
f 8/7/8 4/6/4 2/13/2
vt 0.749954 0.000092
f 8/7/8 2/13/2 6/14/6
# 12 faces, 14 coords texture

# End of File
