####
#
# OBJ File Generated by Meshlab
#
####
# Object white17.obj
#
# Vertices: 8
# Faces: 12
#
####
mtllib ./white17.obj.mtl

vn -2.000000 -1.000000 1.000000
v -0.042500 -0.015000 0.067500 1.000000 1.000000 1.000000
vn -1.000000 2.000000 2.000000
v -0.042500 0.015000 0.067500 1.000000 1.000000 1.000000
vn -1.000000 -2.000000 -2.000000
v -0.042500 -0.015000 -0.067500 1.000000 1.000000 1.000000
vn -2.000000 1.000000 -1.000000
v -0.042500 0.015000 -0.067500 1.000000 1.000000 1.000000
vn 1.000000 -2.000000 2.000000
v 0.042500 -0.015000 0.067500 1.000000 1.000000 1.000000
vn 2.000000 1.000000 1.000000
v 0.042500 0.015000 0.067500 1.000000 1.000000 1.000000
vn 2.000000 -1.000000 -1.000000
v 0.042500 -0.015000 -0.067500 1.000000 1.000000 1.000000
vn 1.000000 2.000000 -2.000000
v 0.042500 0.015000 -0.067500 1.000000 1.000000 1.000000
# 8 vertices, 0 vertices normals


usemtl material_0
vt 0.845004 0.619695
vt 0.929495 0.619695
vt 0.929495 0.999904
f 1/1/1 2/2/2 4/3/4
vt 0.845004 0.999904
f 1/1/1 4/3/4 3/4/3
vt 0.464796 0.619695
vt 0.380305 0.619695
vt 0.380305 0.380305
f 3/5/3 4/6/4 8/7/8
vt 0.464796 0.380305
f 3/5/3 8/7/8 7/8/7
vt 0.845004 0.000096
vt 0.929495 0.000096
vt 0.929495 0.380305
f 7/9/7 8/10/8 6/11/6
vt 0.845004 0.380305
f 7/9/7 6/11/6 5/12/5
f 5/12/5 6/11/6 2/2/2
f 5/12/5 2/2/2 1/1/1
f 3/5/3 7/8/7 5/12/5
f 3/5/3 5/12/5 1/1/1
vt 0.000096 0.619695
f 8/7/8 4/6/4 2/13/2
vt 0.000096 0.380305
f 8/7/8 2/13/2 6/14/6
# 12 faces, 14 coords texture

# End of File
